<?xml version="1.0" encoding="UTF-8" standalone="no"?>
<!-- Created with Inkscape (http://www.inkscape.org/) -->

<svg
   xmlns:dc="http://purl.org/dc/elements/1.1/"
   xmlns:cc="http://creativecommons.org/ns#"
   xmlns:rdf="http://www.w3.org/1999/02/22-rdf-syntax-ns#"
   xmlns:svg="http://www.w3.org/2000/svg"
   xmlns="http://www.w3.org/2000/svg"
   xmlns:sodipodi="http://sodipodi.sourceforge.net/DTD/sodipodi-0.dtd"
   xmlns:inkscape="http://www.inkscape.org/namespaces/inkscape"
   width="297mm"
   height="210mm"
   viewBox="0 0 1052.3622 744.09448"
   id="svg2"
   version="1.1"
   inkscape:version="0.91 r13725"
   sodipodi:docname="logo.svg"
   inkscape:export-filename="/Users/praveennalakurthi/Google Drive/Logo Designes/Logos/gamecluber1.png"
   inkscape:export-xdpi="90"
   inkscape:export-ydpi="90">
  <defs
     id="defs4" />
  <sodipodi:namedview
     id="base"
     pagecolor="#ffffff"
     bordercolor="#666666"
     borderopacity="1.0"
     inkscape:pageopacity="0.0"
     inkscape:pageshadow="2"
     inkscape:zoom="0.64"
     inkscape:cx="545.22394"
     inkscape:cy="517.62449"
     inkscape:document-units="px"
     inkscape:current-layer="layer1"
     showgrid="false"
     inkscape:snap-nodes="false"
     inkscape:snap-others="false"
     inkscape:window-width="1920"
     inkscape:window-height="970"
     inkscape:window-x="0"
     inkscape:window-y="1"
     inkscape:window-maximized="1"
     inkscape:object-nodes="true"
     inkscape:object-paths="true"
     showguides="true"
     inkscape:guide-bbox="true"
     inkscape:snap-intersection-paths="true"
     inkscape:snap-smooth-nodes="true" />
  <metadata
     id="metadata7">
    <rdf:RDF>
      <cc:Work
         rdf:about="">
        <dc:format>image/svg+xml</dc:format>
        <dc:type
           rdf:resource="http://purl.org/dc/dcmitype/StillImage" />
        <dc:title></dc:title>
      </cc:Work>
    </rdf:RDF>
  </metadata>
  <g
     inkscape:label="Layer 1"
     inkscape:groupmode="layer"
     id="layer1"
     transform="translate(0,-308.26772)">
    <rect
       style="font-style:normal;font-variant:normal;font-weight:normal;font-stretch:normal;font-size:medium;line-height:125%;font-family:'Vanished (BRK)';-inkscape-font-specification:'Vanished (BRK), Normal';text-align:start;letter-spacing:0px;word-spacing:0px;writing-mode:lr-tb;text-anchor:start;opacity:1;fill:none;fill-opacity:1;fill-rule:nonzero;stroke:none;stroke-width:1;stroke-linecap:butt;stroke-linejoin:miter;stroke-miterlimit:4;stroke-dasharray:none;stroke-opacity:1"
       id="rect4599"
       width="1056.9103"
       height="745.94543"
       x="0"
       y="306.41675" />
    <path
       style="opacity:1;fill:#ff6600;fill-opacity:1;fill-rule:nonzero;stroke:none;stroke-width:1;stroke-miterlimit:4;stroke-dasharray:none;stroke-opacity:1"
       d="m 315.78948,525.96699 -27.38151,24.38701 0,140.54287 c 6.19712,-15.54579 15.5739,-27.94932 27.38151,-39.41877 z m 316.90475,75.4277 c -18.51506,0 -34.72743,9.54502 -44.09047,23.96379 2.72147,-0.37276 5.47676,-0.64085 8.29911,-0.64085 l 131.57129,0 26.35697,-23.32294 z m -211.50455,13.11322 c -29.32717,0 -55.87318,11.57737 -75.4989,30.33644 12.42427,-4.4633 25.75145,-7.01745 39.70359,-7.01745 64.99654,0 117.78161,52.78506 117.78161,117.78163 0,19.10186 -4.72245,37.04456 -12.83237,52.98294 24.53741,-20.04322 40.21388,-50.52274 40.21388,-84.71575 0,-60.44921 -48.9186,-109.36781 -109.36781,-109.36781 z m 152.57221,24.01123 c -17.43443,8.54747 -29.43057,26.41625 -29.43056,47.18387 0,29.08772 23.48381,52.58737 52.57154,52.58737 l 84.14217,0 c 44.36223,-0.57932 76.76994,8.48978 58.94817,76.42058 17.42845,-8.55132 29.43058,-26.4083 29.43058,-47.16802 0,-29.08773 -23.49966,-52.57154 -52.58739,-52.57154 l -84.14217,0 c -51.61459,-0.36363 -78.48089,-11.66765 -58.93234,-76.45226 z m -245.31806,19.3791 c -24.44354,20.04946 -40.03586,50.48021 -40.03586,84.60104 0,60.29385 48.65866,109.08197 108.8931,109.33219 l 0,0.0202 0.45887,0 43.53669,0 239.74841,0 c 18.51513,0 34.72264,-9.54508 44.09048,-23.96378 -2.72165,0.37276 -5.47666,0.64086 -8.29912,0.64086 l -238.84649,0 -12.81655,0 -31.61809,0 c -81.35819,0 -120.74062,-47.56335 -117.76579,-117.76583 0.80607,-19.01162 4.62579,-36.94692 12.65435,-52.86426 z"
       id="path4299"
       inkscape:connector-curvature="0"
       sodipodi:nodetypes="cccccscsccsscsscsscssccsscccsccccscsccsccc" />
    <rect
       style="opacity:1;fill:none;fill-opacity:1;fill-rule:nonzero;stroke:#da0000;stroke-width:0.10168462;stroke-miterlimit:4;stroke-dasharray:none;stroke-opacity:1"
       id="rect5974"
       width="1057.8301"
       height="602.45331"
       x="0.0008423063"
       y="387.68268" />
  </g>
</svg>
